name Walk6.mot
datacolumns 19
datarows 30
range 4.79400000 4.82300000
endheader

                time	   L_ground_force_vx	   L_ground_force_vy	   L_ground_force_vz	   L_ground_force_px	   L_ground_force_py	   L_ground_force_pz	   R_ground_force_vx	   R_ground_force_vy	   R_ground_force_vz	   R_ground_force_px	   R_ground_force_py	   R_ground_force_pz	   L_ground_torque_x	   L_ground_torque_y	   L_ground_torque_z	   R_ground_torque_x	   R_ground_torque_y	   R_ground_torque_z	
          4.79400000	         -0.00000000	         -0.00000000	         -0.00000000	          0.00000000	          0.00000000	          0.00000000	          8.35492516	        101.89684074	          3.87207629	          0.26825954	          0.00000000	          0.09442402	          0.00000000	         -0.00000000	          0.00000000	          0.00000000	         -4.50125568	          0.00000000	
          4.79500000	          0.00000000	         -0.00000000	         -0.00000000	          0.00000000	          0.00000000	          0.00000000	          7.36060315	         96.33260365	          3.83642920	          0.26615087	          0.00000000	          0.09287691	          0.00000000	         -0.00000000	          0.00000000	          0.00000000	         -4.31015100	          0.00000000	
          4.79600000	          0.00000000	         -0.00000000	         -0.00000000	          0.00000000	          0.00000000	          0.00000000	          6.40134633	         90.94867235	          3.79325338	          0.26385824	          0.00000000	          0.09128323	          0.00000000	         -0.00000000	          0.00000000	          0.00000000	         -4.12193570	          0.00000000	
          4.79700000	          0.00000000	          0.00000000	         -0.00000000	          0.00000000	          0.00000000	          0.00000000	          5.47826052	         85.74451569	          3.74317098	          0.26137599	          0.00000000	          0.08964332	          0.00000000	         -0.00000000	          0.00000000	          0.00000000	         -3.93681586	          0.00000000	
          4.79800000	          0.00000000	          0.00000000	         -0.00000000	          0.00000000	          0.00000000	          0.00000000	          4.59235983	         80.71922341	          3.68677414	          0.25869884	          0.00000000	          0.08795767	          0.00000000	         -0.00000000	          0.00000000	          0.00000000	         -3.75498679	          0.00000000	
          4.79900000	          0.00000000	          0.00000000	         -0.00000000	          0.00000000	          0.00000000	          0.00000000	          3.74455900	         75.87152240	          3.62462426	          0.25582199	          0.00000000	          0.08622687	          0.00000000	         -0.00000000	          0.00000000	          0.00000000	         -3.57663198	          0.00000000	
          4.80000000	          0.00000000	          0.00000000	         -0.00000000	          0.00000000	          0.00000000	          0.00000000	          2.93566623	         71.19979714	          3.55725128	          0.25274117	          0.00000000	          0.08445164	          0.00000000	         -0.00000000	          0.00000000	          0.00000000	         -3.40192206	          0.00000000	
          4.80100000	          0.00000000	          0.00000000	         -0.00000000	          0.00000000	          0.00000000	          0.00000000	          2.16637693	         66.70211436	          3.48515327	          0.24945272	          0.00000000	          0.08263281	          0.00000000	         -0.00000000	          0.00000000	          0.00000000	         -3.23101398	          0.00000000	
          4.80200000	          0.00000000	          0.00000000	         -0.00000000	          0.00000000	          0.00000000	          0.00000000	          1.43726829	         62.37625169	          3.40879650	          0.24595370	          0.00000000	          0.08077138	          0.00000000	         -0.00000000	          0.00000000	          0.00000000	         -3.06405036	          0.00000000	
          4.80300000	          0.00000000	          0.00000000	         -0.00000000	          0.00000000	          0.00000000	          0.00000000	          0.74879478	         58.21972885	          3.32861660	          0.24224193	          0.00000000	          0.07886850	          0.00000000	         -0.00000000	          0.00000000	          0.00000000	         -2.90115910	          0.00000000	
          4.80400000	          0.00000000	          0.00000000	         -0.00000000	          0.00000000	          0.00000000	          0.00000000	          0.10128416	         54.22984000	          3.24502062	          0.23831617	          0.00000000	          0.07692557	          0.00000000	         -0.00000000	          0.00000000	          0.00000000	         -2.74245303	          0.00000000	
          4.80500000	          0.00000000	          0.00000000	         -0.00000000	          0.00000000	          0.00000000	          0.00000000	         -0.50506641	         50.40368535	          3.15839023	          0.23417614	          0.00000000	          0.07494417	          0.00000000	         -0.00000000	          0.00000000	          0.00000000	         -2.58802992	          0.00000000	
          4.80600000	          0.00000000	          0.00000000	         -0.00000000	          0.00000000	          0.00000000	          0.00000000	         -1.07019473	         46.73820104	          3.06908544	          0.22982262	          0.00000000	          0.07292615	          0.00000000	         -0.00000000	          0.00000000	          0.00000000	         -2.43797255	          0.00000000	
          4.80700000	          0.00000000	          0.00000000	         -0.00000000	          0.00000000	          0.00000000	          0.00000000	         -1.59417861	         43.23018731	          2.97744843	          0.22525754	          0.00000000	          0.07087360	          0.00000000	         -0.00000000	          0.00000000	          0.00000000	         -2.29234908	          0.00000000	
          4.80800000	          0.00000000	          0.00000000	          0.00000000	          0.00000000	          0.00000000	          0.00000000	         -2.07724130	         39.87633551	          2.88380700	          0.22048405	          0.00000000	          0.06878884	          0.00000000	         -0.00000000	          0.00000000	          0.00000000	         -2.15121362	          0.00000000	
          4.80900000	          0.00000000	          0.00000000	          0.00000000	          0.00000000	          0.00000000	          0.00000000	         -2.51975695	         36.67325458	          2.78847701	          0.21550657	          0.00000000	          0.06667445	          0.00000000	         -0.00000000	          0.00000000	          0.00000000	         -2.01460694	          0.00000000	
          4.81000000	          0.00000000	          0.00000000	          0.00000000	          0.00000000	          0.00000000	          0.00000000	         -2.92225525	         33.61749700	          2.69176408	          0.21033090	          0.00000000	          0.06453324	          0.00000000	         -0.00000000	          0.00000000	          0.00000000	         -1.88255732	          0.00000000	
          4.81100000	          0.00000000	          0.00000000	          0.00000000	          0.00000000	          0.00000000	          0.00000000	         -3.28542468	         30.70558358	          2.59396473	          0.20496424	          0.00000000	          0.06236829	          0.00000000	          0.00000000	          0.00000000	          0.00000000	         -1.75508149	          0.00000000	
          4.81200000	          0.00000000	          0.00000000	          0.00000000	          0.00000000	          0.00000000	          0.00000000	         -3.61011412	         27.93402679	          2.49536765	          0.19941532	          0.00000000	          0.06018297	          0.00000000	          0.00000000	          0.00000000	          0.00000000	         -1.63218558	          0.00000000	
          4.81300000	          0.00000000	          0.00000000	          0.00000000	          0.00000000	          0.00000000	          0.00000000	         -3.89733299	         25.29935256	          2.39625551	          0.19369449	          0.00000000	          0.05798095	          0.00000000	          0.00000000	          0.00000000	          0.00000000	         -1.51386608	          0.00000000	
          4.81400000	          0.00000000	          0.00000000	          0.00000000	          0.00000000	          0.00000000	          0.00000000	         -4.14824991	         22.79812076	          2.29690695	          0.18781380	          0.00000000	          0.05576625	          0.00000000	          0.00000000	          0.00000000	          0.00000000	         -1.40011086	          0.00000000	
          4.81500000	          0.00000000	          0.00000000	          0.00000000	          0.00000000	          0.00000000	          0.00000000	         -4.36419004	         20.42694437	          2.19759842	          0.18178719	          0.00000000	          0.05354322	          0.00000000	          0.00000000	          0.00000000	          0.00000000	         -1.29090019	          0.00000000	
          4.81600000	          0.00000000	          0.00000000	          0.00000000	          0.00000000	          0.00000000	          0.00000000	         -4.54663036	         18.18250582	          2.09860523	          0.17563061	          0.00000000	          0.05131659	          0.00000000	          0.00000000	          0.00000000	          0.00000000	         -1.18620802	          0.00000000	
          4.81700000	          0.00000000	          0.00000000	          0.00000000	          0.00000000	          0.00000000	          0.00000000	         -4.69719146	         16.06156746	          2.00020126	          0.16936222	          0.00000000	          0.04909148	          0.00000000	          0.00000000	          0.00000000	          0.00000000	         -1.08600326	          0.00000000	
          4.81800000	          0.00000000	          0.00000000	          0.00000000	          0.00000000	          0.00000000	          0.00000000	         -4.81762357	         14.06097200	          1.90265727	          0.16300250	          0.00000000	          0.04687340	          0.00000000	          0.00000000	          0.00000000	          0.00000000	         -0.99025099	          0.00000000	
          4.81900000	          0.00000000	          0.00000000	          0.00000000	          0.00000000	          0.00000000	          0.00000000	         -4.90978484	         12.17762885	          1.80623778	          0.15657444	          0.00000000	          0.04466823	          0.00000000	          0.00000000	          0.00000000	          0.00000000	         -0.89891338	          0.00000000	
          4.82000000	          0.00000000	          0.00000000	          0.00000000	         -0.00000000	          0.00000000	          0.00000000	         -4.97560583	         10.40847850	          1.71119655	          0.15010330	          0.00000000	          0.04248219	          0.00000000	          0.00000000	          0.00000000	          0.00000000	         -0.81194926	          0.00000000	
          4.82100000	          0.00000000	          0.00000000	          0.00000000	         -0.00000000	          0.00000000	         -0.00000000	         -5.01703550	          8.75042836	          1.61777068	          0.14361546	          0.00000000	          0.04032155	          0.00000000	          0.00000000	          0.00000000	          0.00000000	         -0.72931165	          0.00000000	
          4.82200000	          0.00000000	          0.00000000	          0.00000000	         -0.00000000	          0.00000000	         -0.00000000	         -5.03598443	          7.20028671	          1.52617509	          0.13713655	          0.00000000	          0.03819224	          0.00000000	          0.00000000	          0.00000000	          0.00000000	         -0.65094433	          0.00000000	
          4.82300000	          0.00000000	          0.00000000	          0.00000000	         -0.00000000	          0.00000000	         -0.00000000	         -5.03429244	          5.75473636	          1.43660027	          0.13069029	          0.00000000	          0.03609967	          0.00000000	          0.00000000	          0.00000000	          0.00000000	         -0.57678035	          0.00000000	
